<svg xmlns="http://www.w3.org/2000/svg" xmlns:xlink="http://www.w3.org/1999/xlink" width="105" zoomAndPan="magnify" viewBox="0 0 78.75 67.499998" height="90" preserveAspectRatio="xMidYMid meet" version="1.0"><defs><g/><clipPath id="6696755830"><path d="M 7.605469 9 L 38 9 L 38 42.253906 L 7.605469 42.253906 Z M 7.605469 9 " clip-rule="nonzero"/></clipPath><clipPath id="1401536371"><path d="M 40 9 L 70.601562 9 L 70.601562 42.253906 L 40 42.253906 Z M 40 9 " clip-rule="nonzero"/></clipPath><clipPath id="cb935a4b03"><path d="M 14.972656 56.5 L 63.371094 56.5 L 63.371094 66.46875 L 14.972656 66.46875 Z M 14.972656 56.5 " clip-rule="nonzero"/></clipPath><clipPath id="00f5479f53"><path d="M 19.898438 56.5 L 58.5 56.5 C 59.808594 56.5 61.0625 57.019531 61.984375 57.945312 C 62.910156 58.871094 63.429688 60.121094 63.429688 61.429688 C 63.429688 62.738281 62.910156 63.988281 61.984375 64.914062 C 61.0625 65.839844 59.808594 66.359375 58.5 66.359375 L 19.898438 66.359375 C 18.59375 66.359375 17.339844 65.839844 16.414062 64.914062 C 15.492188 63.988281 14.972656 62.738281 14.972656 61.429688 C 14.972656 60.121094 15.492188 58.871094 16.414062 57.945312 C 17.339844 57.019531 18.59375 56.5 19.898438 56.5 Z M 19.898438 56.5 " clip-rule="nonzero"/></clipPath></defs><g clip-path="url(#6696755830)"><path fill="#007bff" d="M 24.957031 20.972656 C 25.609375 20.792969 26.28125 21.171875 26.464844 21.824219 C 27.917969 27.066406 32.476562 30.855469 37.8125 31.414062 L 37.8125 13.296875 C 37.8125 11.238281 36.144531 9.566406 34.085938 9.566406 L 11.324219 9.566406 C 9.265625 9.566406 7.597656 11.238281 7.597656 13.296875 L 7.597656 38.746094 C 7.597656 40.804688 9.265625 42.472656 11.324219 42.472656 L 34.085938 42.472656 C 36.144531 42.472656 37.8125 40.804688 37.8125 38.746094 L 37.8125 33.867188 C 31.382812 33.296875 25.855469 28.769531 24.109375 22.476562 C 23.929688 21.824219 24.308594 21.15625 24.957031 20.972656 Z M 32.179688 19.480469 C 33.09375 19.480469 33.839844 20.230469 33.839844 21.15625 C 33.839844 22.082031 33.09375 22.835938 32.179688 22.835938 C 31.261719 22.835938 30.515625 22.082031 30.515625 21.15625 C 30.515625 20.230469 31.261719 19.480469 32.179688 19.480469 Z M 32.179688 19.480469 " fill-opacity="1" fill-rule="nonzero"/></g><path fill="#000000" d="M 30.136719 9.566406 L 27.699219 9.566406 L 27.699219 7.453125 C 27.699219 4.699219 25.457031 2.460938 22.707031 2.460938 C 19.953125 2.460938 17.714844 4.699219 17.714844 7.453125 L 17.714844 9.566406 L 15.277344 9.566406 L 15.277344 7.453125 C 15.277344 3.355469 18.613281 0.0234375 22.707031 0.0234375 C 26.800781 0.0234375 30.140625 3.355469 30.140625 7.453125 L 30.140625 9.566406 Z M 30.136719 9.566406 " fill-opacity="1" fill-rule="nonzero"/><g clip-path="url(#1401536371)"><path fill="#ffc107" d="M 67.050781 9.566406 L 44.285156 9.566406 C 42.226562 9.566406 40.5625 11.238281 40.5625 13.296875 L 40.5625 31.417969 C 45.894531 30.855469 50.457031 27.066406 51.914062 21.824219 C 52.09375 21.171875 52.765625 20.792969 53.414062 20.972656 C 54.0625 21.15625 54.445312 21.824219 54.265625 22.476562 C 52.515625 28.769531 46.992188 33.300781 40.5625 33.867188 L 40.5625 38.746094 C 40.5625 40.804688 42.226562 42.472656 44.285156 42.472656 L 67.050781 42.472656 C 69.105469 42.472656 70.777344 40.804688 70.777344 38.746094 L 70.777344 13.296875 C 70.777344 11.238281 69.105469 9.566406 67.050781 9.566406 Z M 46.195312 22.835938 C 45.277344 22.835938 44.535156 22.082031 44.535156 21.15625 C 44.535156 20.230469 45.277344 19.480469 46.195312 19.480469 C 47.113281 19.480469 47.859375 20.230469 47.859375 21.15625 C 47.859375 22.082031 47.113281 22.835938 46.195312 22.835938 Z M 46.195312 22.835938 " fill-opacity="1" fill-rule="nonzero"/></g><path fill="#000000" d="M 63.101562 9.566406 L 60.664062 9.566406 L 60.664062 7.453125 C 60.664062 4.699219 58.421875 2.460938 55.671875 2.460938 C 52.917969 2.460938 50.679688 4.699219 50.679688 7.453125 L 50.679688 9.566406 L 48.242188 9.566406 L 48.242188 7.453125 C 48.242188 3.355469 51.574219 0.0234375 55.671875 0.0234375 C 59.769531 0.0234375 63.105469 3.355469 63.105469 7.453125 L 63.105469 9.566406 Z M 63.101562 9.566406 " fill-opacity="1" fill-rule="nonzero"/><g clip-path="url(#cb935a4b03)"><g clip-path="url(#00f5479f53)"><path stroke-linecap="butt" transform="matrix(0.768276, 0, 0, 0.768276, 14.971617, 56.501951)" fill="none" stroke-linejoin="miter" d="M 6.412825 -0.00253941 L 56.657209 -0.00253941 C 58.360495 -0.00253941 59.992599 0.67369 61.192525 1.878701 C 62.397536 3.083712 63.073766 4.710732 63.073766 6.414017 C 63.073766 8.117303 62.397536 9.744322 61.192525 10.949333 C 59.992599 12.154344 58.360495 12.830574 56.657209 12.830574 L 6.412825 12.830574 C 4.714624 12.830574 3.08252 12.154344 1.877509 10.949333 C 0.677582 9.744322 0.00135257 8.117303 0.00135257 6.414017 C 0.00135257 4.710732 0.677582 3.083712 1.877509 1.878701 C 3.08252 0.67369 4.714624 -0.00253941 6.412825 -0.00253941 Z M 6.412825 -0.00253941 " stroke="#16a9d6" stroke-width="3.876134" stroke-opacity="1" stroke-miterlimit="4"/></g></g><g fill="#000000" fill-opacity="1"><g transform="translate(15.454977, 54.203657)"><g><path d="M 0.484375 -6.28125 L 0.484375 -6.796875 C 0.484375 -6.953125 0.539062 -7.085938 0.65625 -7.203125 C 0.769531 -7.316406 0.90625 -7.375 1.0625 -7.375 L 5.96875 -7.375 C 6.125 -7.375 6.257812 -7.316406 6.375 -7.203125 C 6.488281 -7.085938 6.546875 -6.953125 6.546875 -6.796875 L 6.546875 -6.28125 C 6.546875 -6.132812 6.488281 -6.003906 6.375 -5.890625 C 6.257812 -5.773438 6.125 -5.71875 5.96875 -5.71875 L 4.640625 -5.71875 C 4.578125 -5.71875 4.546875 -5.6875 4.546875 -5.625 L 4.546875 -0.578125 C 4.546875 -0.421875 4.488281 -0.285156 4.375 -0.171875 C 4.269531 -0.0546875 4.140625 0 3.984375 0 L 3.046875 0 C 2.898438 0 2.769531 -0.0546875 2.65625 -0.171875 C 2.539062 -0.285156 2.484375 -0.421875 2.484375 -0.578125 L 2.484375 -5.625 C 2.484375 -5.6875 2.453125 -5.71875 2.390625 -5.71875 L 1.0625 -5.71875 C 0.90625 -5.71875 0.769531 -5.773438 0.65625 -5.890625 C 0.539062 -6.003906 0.484375 -6.132812 0.484375 -6.28125 Z M 0.484375 -6.28125 "/></g></g></g><g fill="#000000" fill-opacity="1"><g transform="translate(22.490044, 54.203657)"><g><path d="M 0.734375 -0.578125 L 0.734375 -6.796875 C 0.734375 -6.953125 0.789062 -7.085938 0.90625 -7.203125 C 1.019531 -7.316406 1.15625 -7.375 1.3125 -7.375 L 5.015625 -7.375 C 5.171875 -7.375 5.304688 -7.316406 5.421875 -7.203125 C 5.535156 -7.085938 5.59375 -6.953125 5.59375 -6.796875 L 5.59375 -6.34375 C 5.59375 -6.1875 5.535156 -6.050781 5.421875 -5.9375 C 5.304688 -5.820312 5.171875 -5.765625 5.015625 -5.765625 L 2.84375 -5.765625 C 2.789062 -5.765625 2.765625 -5.738281 2.765625 -5.6875 L 2.765625 -4.640625 C 2.765625 -4.578125 2.789062 -4.546875 2.84375 -4.546875 L 4.8125 -4.546875 C 4.96875 -4.546875 5.101562 -4.488281 5.21875 -4.375 C 5.332031 -4.257812 5.390625 -4.125 5.390625 -3.96875 L 5.390625 -3.609375 C 5.390625 -3.453125 5.332031 -3.316406 5.21875 -3.203125 C 5.101562 -3.085938 4.96875 -3.03125 4.8125 -3.03125 L 2.84375 -3.03125 C 2.789062 -3.03125 2.765625 -3.003906 2.765625 -2.953125 L 2.765625 -1.703125 C 2.765625 -1.648438 2.789062 -1.625 2.84375 -1.625 L 5.015625 -1.625 C 5.171875 -1.625 5.304688 -1.566406 5.421875 -1.453125 C 5.535156 -1.335938 5.59375 -1.203125 5.59375 -1.046875 L 5.59375 -0.578125 C 5.59375 -0.421875 5.535156 -0.285156 5.421875 -0.171875 C 5.304688 -0.0546875 5.171875 0 5.015625 0 L 1.3125 0 C 1.15625 0 1.019531 -0.0546875 0.90625 -0.171875 C 0.789062 -0.285156 0.734375 -0.421875 0.734375 -0.578125 Z M 0.734375 -0.578125 "/></g></g></g><g fill="#000000" fill-opacity="1"><g transform="translate(28.716481, 54.203657)"><g><path d="M 4.421875 -5.859375 C 3.773438 -5.859375 3.269531 -5.671875 2.90625 -5.296875 C 2.539062 -4.921875 2.359375 -4.382812 2.359375 -3.6875 C 2.359375 -3.007812 2.546875 -2.476562 2.921875 -2.09375 C 3.304688 -1.707031 3.804688 -1.515625 4.421875 -1.515625 C 4.828125 -1.515625 5.21875 -1.609375 5.59375 -1.796875 C 5.726562 -1.859375 5.867188 -1.863281 6.015625 -1.8125 C 6.160156 -1.757812 6.253906 -1.664062 6.296875 -1.53125 L 6.453125 -1.140625 C 6.515625 -0.984375 6.515625 -0.820312 6.453125 -0.65625 C 6.398438 -0.5 6.300781 -0.382812 6.15625 -0.3125 C 5.582031 -0.0390625 4.9375 0.09375 4.21875 0.09375 C 3.03125 0.09375 2.078125 -0.242188 1.359375 -0.921875 C 0.640625 -1.597656 0.28125 -2.519531 0.28125 -3.6875 C 0.28125 -4.875 0.625 -5.800781 1.3125 -6.46875 C 2.007812 -7.144531 2.976562 -7.484375 4.21875 -7.484375 C 4.9375 -7.484375 5.582031 -7.34375 6.15625 -7.0625 C 6.300781 -6.988281 6.398438 -6.867188 6.453125 -6.703125 C 6.515625 -6.546875 6.515625 -6.390625 6.453125 -6.234375 L 6.296875 -5.84375 C 6.253906 -5.707031 6.160156 -5.613281 6.015625 -5.5625 C 5.867188 -5.507812 5.726562 -5.519531 5.59375 -5.59375 C 5.21875 -5.769531 4.828125 -5.859375 4.421875 -5.859375 Z M 4.421875 -5.859375 "/></g></g></g><g fill="#000000" fill-opacity="1"><g transform="translate(35.741437, 54.203657)"><g><path d="M 4.890625 -4.640625 L 4.890625 -6.796875 C 4.890625 -6.953125 4.945312 -7.085938 5.0625 -7.203125 C 5.175781 -7.316406 5.304688 -7.375 5.453125 -7.375 L 6.328125 -7.375 C 6.484375 -7.375 6.617188 -7.316406 6.734375 -7.203125 C 6.847656 -7.085938 6.90625 -6.953125 6.90625 -6.796875 L 6.90625 -0.578125 C 6.90625 -0.421875 6.847656 -0.285156 6.734375 -0.171875 C 6.617188 -0.0546875 6.484375 0 6.328125 0 L 5.453125 0 C 5.304688 0 5.175781 -0.0546875 5.0625 -0.171875 C 4.945312 -0.285156 4.890625 -0.421875 4.890625 -0.578125 L 4.890625 -2.9375 C 4.890625 -3 4.859375 -3.03125 4.796875 -3.03125 L 2.84375 -3.03125 C 2.789062 -3.03125 2.765625 -3 2.765625 -2.9375 L 2.765625 -0.578125 C 2.765625 -0.421875 2.707031 -0.285156 2.59375 -0.171875 C 2.476562 -0.0546875 2.34375 0 2.1875 0 L 1.3125 0 C 1.15625 0 1.019531 -0.0546875 0.90625 -0.171875 C 0.789062 -0.285156 0.734375 -0.421875 0.734375 -0.578125 L 0.734375 -6.796875 C 0.734375 -6.953125 0.789062 -7.085938 0.90625 -7.203125 C 1.019531 -7.316406 1.15625 -7.375 1.3125 -7.375 L 2.1875 -7.375 C 2.34375 -7.375 2.476562 -7.316406 2.59375 -7.203125 C 2.707031 -7.085938 2.765625 -6.953125 2.765625 -6.796875 L 2.765625 -4.640625 C 2.765625 -4.578125 2.789062 -4.546875 2.84375 -4.546875 L 4.796875 -4.546875 C 4.859375 -4.546875 4.890625 -4.578125 4.890625 -4.640625 Z M 4.890625 -4.640625 "/></g></g></g><g fill="#000000" fill-opacity="1"><g transform="translate(43.372865, 54.203657)"><g><path d="M 2.8125 -6.796875 L 2.8125 -1.765625 C 2.8125 -1.703125 2.84375 -1.671875 2.90625 -1.671875 L 5.21875 -1.671875 C 5.375 -1.671875 5.507812 -1.613281 5.625 -1.5 C 5.738281 -1.382812 5.796875 -1.25 5.796875 -1.09375 L 5.796875 -0.578125 C 5.796875 -0.421875 5.738281 -0.285156 5.625 -0.171875 C 5.507812 -0.0546875 5.375 0 5.21875 0 L 1.3125 0 C 1.15625 0 1.019531 -0.0546875 0.90625 -0.171875 C 0.789062 -0.285156 0.734375 -0.421875 0.734375 -0.578125 L 0.734375 -6.796875 C 0.734375 -6.953125 0.789062 -7.085938 0.90625 -7.203125 C 1.019531 -7.316406 1.15625 -7.375 1.3125 -7.375 L 2.234375 -7.375 C 2.390625 -7.375 2.523438 -7.316406 2.640625 -7.203125 C 2.753906 -7.085938 2.8125 -6.953125 2.8125 -6.796875 Z M 2.8125 -6.796875 "/></g></g></g><g fill="#000000" fill-opacity="1"><g transform="translate(49.64984, 54.203657)"><g><path d="M 0.734375 -0.578125 L 0.734375 -6.796875 C 0.734375 -6.953125 0.789062 -7.085938 0.90625 -7.203125 C 1.019531 -7.316406 1.15625 -7.375 1.3125 -7.375 L 5.015625 -7.375 C 5.171875 -7.375 5.304688 -7.316406 5.421875 -7.203125 C 5.535156 -7.085938 5.59375 -6.953125 5.59375 -6.796875 L 5.59375 -6.34375 C 5.59375 -6.1875 5.535156 -6.050781 5.421875 -5.9375 C 5.304688 -5.820312 5.171875 -5.765625 5.015625 -5.765625 L 2.84375 -5.765625 C 2.789062 -5.765625 2.765625 -5.738281 2.765625 -5.6875 L 2.765625 -4.640625 C 2.765625 -4.578125 2.789062 -4.546875 2.84375 -4.546875 L 4.8125 -4.546875 C 4.96875 -4.546875 5.101562 -4.488281 5.21875 -4.375 C 5.332031 -4.257812 5.390625 -4.125 5.390625 -3.96875 L 5.390625 -3.609375 C 5.390625 -3.453125 5.332031 -3.316406 5.21875 -3.203125 C 5.101562 -3.085938 4.96875 -3.03125 4.8125 -3.03125 L 2.84375 -3.03125 C 2.789062 -3.03125 2.765625 -3.003906 2.765625 -2.953125 L 2.765625 -1.703125 C 2.765625 -1.648438 2.789062 -1.625 2.84375 -1.625 L 5.015625 -1.625 C 5.171875 -1.625 5.304688 -1.566406 5.421875 -1.453125 C 5.535156 -1.335938 5.59375 -1.203125 5.59375 -1.046875 L 5.59375 -0.578125 C 5.59375 -0.421875 5.535156 -0.285156 5.421875 -0.171875 C 5.304688 -0.0546875 5.171875 0 5.015625 0 L 1.3125 0 C 1.15625 0 1.019531 -0.0546875 0.90625 -0.171875 C 0.789062 -0.285156 0.734375 -0.421875 0.734375 -0.578125 Z M 0.734375 -0.578125 "/></g></g></g><g fill="#000000" fill-opacity="1"><g transform="translate(55.876278, 54.203657)"><g><path d="M 6.6875 -6.90625 L 4.734375 -3.90625 C 4.703125 -3.863281 4.703125 -3.816406 4.734375 -3.765625 L 6.796875 -0.484375 C 6.867188 -0.378906 6.875 -0.269531 6.8125 -0.15625 C 6.75 -0.0507812 6.65625 0 6.53125 0 L 5.359375 0 C 4.972656 0 4.679688 -0.164062 4.484375 -0.5 L 2.78125 -3.421875 C 2.78125 -3.429688 2.773438 -3.4375 2.765625 -3.4375 C 2.765625 -3.4375 2.765625 -3.429688 2.765625 -3.421875 L 2.765625 -0.578125 C 2.765625 -0.421875 2.707031 -0.285156 2.59375 -0.171875 C 2.476562 -0.0546875 2.34375 0 2.1875 0 L 1.3125 0 C 1.15625 0 1.019531 -0.0546875 0.90625 -0.171875 C 0.789062 -0.285156 0.734375 -0.421875 0.734375 -0.578125 L 0.734375 -6.796875 C 0.734375 -6.953125 0.789062 -7.085938 0.90625 -7.203125 C 1.019531 -7.316406 1.15625 -7.375 1.3125 -7.375 L 2.1875 -7.375 C 2.34375 -7.375 2.476562 -7.316406 2.59375 -7.203125 C 2.707031 -7.085938 2.765625 -6.953125 2.765625 -6.796875 L 2.765625 -4.25 C 2.773438 -4.25 2.78125 -4.25 2.78125 -4.25 L 4.390625 -6.890625 C 4.585938 -7.210938 4.875 -7.375 5.25 -7.375 L 6.421875 -7.375 C 6.546875 -7.375 6.640625 -7.320312 6.703125 -7.21875 C 6.765625 -7.113281 6.757812 -7.007812 6.6875 -6.90625 Z M 6.6875 -6.90625 "/></g></g></g><g fill="#000000" fill-opacity="1"><g transform="translate(19.937598, 63.878705)"><g><path d="M 0.296875 -2.09375 C 0.296875 -2.40625 0.335938 -2.691406 0.421875 -2.953125 C 0.515625 -3.210938 0.644531 -3.441406 0.8125 -3.640625 C 0.988281 -3.835938 1.195312 -3.988281 1.4375 -4.09375 C 1.6875 -4.207031 1.96875 -4.265625 2.28125 -4.265625 C 2.582031 -4.265625 2.851562 -4.207031 3.09375 -4.09375 C 3.34375 -3.976562 3.550781 -3.820312 3.71875 -3.625 C 3.894531 -3.425781 4.023438 -3.195312 4.109375 -2.9375 C 4.203125 -2.675781 4.25 -2.394531 4.25 -2.09375 C 4.25 -1.800781 4.203125 -1.519531 4.109375 -1.25 C 4.023438 -0.988281 3.894531 -0.757812 3.71875 -0.5625 C 3.550781 -0.363281 3.34375 -0.207031 3.09375 -0.09375 C 2.851562 0.0195312 2.582031 0.078125 2.28125 0.078125 C 1.96875 0.078125 1.6875 0.0195312 1.4375 -0.09375 C 1.195312 -0.207031 0.988281 -0.363281 0.8125 -0.5625 C 0.644531 -0.757812 0.515625 -0.988281 0.421875 -1.25 C 0.335938 -1.519531 0.296875 -1.800781 0.296875 -2.09375 Z M 0.875 -2.09375 C 0.875 -1.882812 0.90625 -1.675781 0.96875 -1.46875 C 1.03125 -1.269531 1.117188 -1.09375 1.234375 -0.9375 C 1.359375 -0.78125 1.503906 -0.65625 1.671875 -0.5625 C 1.847656 -0.46875 2.050781 -0.421875 2.28125 -0.421875 C 2.507812 -0.421875 2.707031 -0.460938 2.875 -0.546875 C 3.050781 -0.628906 3.195312 -0.742188 3.3125 -0.890625 C 3.4375 -1.046875 3.523438 -1.222656 3.578125 -1.421875 C 3.640625 -1.628906 3.671875 -1.851562 3.671875 -2.09375 C 3.671875 -2.3125 3.640625 -2.519531 3.578125 -2.71875 C 3.515625 -2.914062 3.421875 -3.09375 3.296875 -3.25 C 3.179688 -3.40625 3.035156 -3.53125 2.859375 -3.625 C 2.691406 -3.71875 2.5 -3.765625 2.28125 -3.765625 C 2.050781 -3.765625 1.847656 -3.722656 1.671875 -3.640625 C 1.503906 -3.554688 1.359375 -3.4375 1.234375 -3.28125 C 1.117188 -3.132812 1.03125 -2.957031 0.96875 -2.75 C 0.90625 -2.550781 0.875 -2.332031 0.875 -2.09375 Z M 0.875 -2.09375 "/></g></g></g><g fill="#000000" fill-opacity="1"><g transform="translate(24.492928, 63.878705)"><g><path d="M 1.078125 -3.453125 L 1.078125 0 L 0.53125 0 L 0.53125 -4.1875 L 1.296875 -4.1875 L 3.140625 -0.703125 L 3.140625 -4.1875 L 3.6875 -4.1875 L 3.6875 0 L 2.9375 0 Z M 1.078125 -3.453125 "/></g></g></g><g fill="#000000" fill-opacity="1"><g transform="translate(28.713044, 63.878705)"><g><path d="M 3.03125 0 L 0.53125 0 L 0.53125 -4.1875 L 1.109375 -4.1875 L 1.109375 -0.515625 L 3.03125 -0.515625 Z M 3.03125 0 "/></g></g></g><g fill="#000000" fill-opacity="1"><g transform="translate(31.771878, 63.878705)"><g><path d="M 0.53125 0 L 0.53125 -4.1875 L 1.109375 -4.1875 L 1.109375 0 Z M 0.53125 0 "/></g></g></g><g fill="#000000" fill-opacity="1"><g transform="translate(33.418022, 63.878705)"><g><path d="M 1.078125 -3.453125 L 1.078125 0 L 0.53125 0 L 0.53125 -4.1875 L 1.296875 -4.1875 L 3.140625 -0.703125 L 3.140625 -4.1875 L 3.6875 -4.1875 L 3.6875 0 L 2.9375 0 Z M 1.078125 -3.453125 "/></g></g></g><g fill="#000000" fill-opacity="1"><g transform="translate(37.638139, 63.878705)"><g><path d="M 0.53125 -4.1875 L 3.046875 -4.1875 L 3.046875 -3.703125 L 1.109375 -3.703125 L 1.109375 -2.421875 L 2.78125 -2.421875 L 2.78125 -1.9375 L 1.109375 -1.9375 L 1.109375 -0.484375 L 3.046875 -0.484375 L 3.046875 0 L 0.53125 0 Z M 0.53125 -4.1875 "/></g></g></g><g fill="#000000" fill-opacity="1"><g transform="translate(40.960357, 63.878705)"><g/></g></g><g fill="#000000" fill-opacity="1"><g transform="translate(42.756149, 63.878705)"><g><path d="M 0.46875 -0.828125 C 0.613281 -0.710938 0.773438 -0.613281 0.953125 -0.53125 C 1.128906 -0.457031 1.335938 -0.421875 1.578125 -0.421875 C 1.867188 -0.421875 2.097656 -0.476562 2.265625 -0.59375 C 2.429688 -0.71875 2.515625 -0.882812 2.515625 -1.09375 C 2.515625 -1.175781 2.5 -1.253906 2.46875 -1.328125 C 2.445312 -1.398438 2.398438 -1.46875 2.328125 -1.53125 C 2.265625 -1.59375 2.171875 -1.65625 2.046875 -1.71875 C 1.921875 -1.789062 1.757812 -1.863281 1.5625 -1.9375 C 1.34375 -2.019531 1.15625 -2.101562 1 -2.1875 C 0.851562 -2.269531 0.734375 -2.359375 0.640625 -2.453125 C 0.554688 -2.554688 0.492188 -2.664062 0.453125 -2.78125 C 0.410156 -2.894531 0.390625 -3.03125 0.390625 -3.1875 C 0.390625 -3.332031 0.421875 -3.46875 0.484375 -3.59375 C 0.546875 -3.726562 0.632812 -3.84375 0.75 -3.9375 C 0.875 -4.039062 1.023438 -4.117188 1.203125 -4.171875 C 1.378906 -4.234375 1.582031 -4.265625 1.8125 -4.265625 C 2.0625 -4.265625 2.28125 -4.238281 2.46875 -4.1875 C 2.664062 -4.132812 2.863281 -4.0625 3.0625 -3.96875 L 2.84375 -3.484375 C 2.707031 -3.566406 2.546875 -3.632812 2.359375 -3.6875 C 2.179688 -3.738281 1.992188 -3.765625 1.796875 -3.765625 C 1.535156 -3.765625 1.328125 -3.710938 1.171875 -3.609375 C 1.023438 -3.515625 0.953125 -3.382812 0.953125 -3.21875 C 0.953125 -3.132812 0.960938 -3.0625 0.984375 -3 C 1.003906 -2.9375 1.046875 -2.875 1.109375 -2.8125 C 1.179688 -2.757812 1.273438 -2.703125 1.390625 -2.640625 C 1.503906 -2.585938 1.660156 -2.523438 1.859375 -2.453125 C 2.085938 -2.359375 2.28125 -2.265625 2.4375 -2.171875 C 2.601562 -2.085938 2.734375 -1.992188 2.828125 -1.890625 C 2.921875 -1.785156 2.988281 -1.671875 3.03125 -1.546875 C 3.070312 -1.429688 3.09375 -1.300781 3.09375 -1.15625 C 3.09375 -0.957031 3.054688 -0.78125 2.984375 -0.625 C 2.910156 -0.476562 2.804688 -0.351562 2.671875 -0.25 C 2.535156 -0.144531 2.375 -0.0625 2.1875 0 C 2 0.0507812 1.796875 0.078125 1.578125 0.078125 C 1.285156 0.078125 1.019531 0.0390625 0.78125 -0.03125 C 0.539062 -0.113281 0.335938 -0.222656 0.171875 -0.359375 Z M 0.46875 -0.828125 "/></g></g></g><g fill="#000000" fill-opacity="1"><g transform="translate(46.156184, 63.878705)"><g><path d="M 3.171875 -1.90625 L 1.109375 -1.90625 L 1.109375 0 L 0.53125 0 L 0.53125 -4.1875 L 1.109375 -4.1875 L 1.109375 -2.40625 L 3.171875 -2.40625 L 3.171875 -4.1875 L 3.734375 -4.1875 L 3.734375 0 L 3.171875 0 Z M 3.171875 -1.90625 "/></g></g></g><g fill="#000000" fill-opacity="1"><g transform="translate(50.436157, 63.878705)"><g><path d="M 0.296875 -2.09375 C 0.296875 -2.40625 0.335938 -2.691406 0.421875 -2.953125 C 0.515625 -3.210938 0.644531 -3.441406 0.8125 -3.640625 C 0.988281 -3.835938 1.195312 -3.988281 1.4375 -4.09375 C 1.6875 -4.207031 1.96875 -4.265625 2.28125 -4.265625 C 2.582031 -4.265625 2.851562 -4.207031 3.09375 -4.09375 C 3.34375 -3.976562 3.550781 -3.820312 3.71875 -3.625 C 3.894531 -3.425781 4.023438 -3.195312 4.109375 -2.9375 C 4.203125 -2.675781 4.25 -2.394531 4.25 -2.09375 C 4.25 -1.800781 4.203125 -1.519531 4.109375 -1.25 C 4.023438 -0.988281 3.894531 -0.757812 3.71875 -0.5625 C 3.550781 -0.363281 3.34375 -0.207031 3.09375 -0.09375 C 2.851562 0.0195312 2.582031 0.078125 2.28125 0.078125 C 1.96875 0.078125 1.6875 0.0195312 1.4375 -0.09375 C 1.195312 -0.207031 0.988281 -0.363281 0.8125 -0.5625 C 0.644531 -0.757812 0.515625 -0.988281 0.421875 -1.25 C 0.335938 -1.519531 0.296875 -1.800781 0.296875 -2.09375 Z M 0.875 -2.09375 C 0.875 -1.882812 0.90625 -1.675781 0.96875 -1.46875 C 1.03125 -1.269531 1.117188 -1.09375 1.234375 -0.9375 C 1.359375 -0.78125 1.503906 -0.65625 1.671875 -0.5625 C 1.847656 -0.46875 2.050781 -0.421875 2.28125 -0.421875 C 2.507812 -0.421875 2.707031 -0.460938 2.875 -0.546875 C 3.050781 -0.628906 3.195312 -0.742188 3.3125 -0.890625 C 3.4375 -1.046875 3.523438 -1.222656 3.578125 -1.421875 C 3.640625 -1.628906 3.671875 -1.851562 3.671875 -2.09375 C 3.671875 -2.3125 3.640625 -2.519531 3.578125 -2.71875 C 3.515625 -2.914062 3.421875 -3.09375 3.296875 -3.25 C 3.179688 -3.40625 3.035156 -3.53125 2.859375 -3.625 C 2.691406 -3.71875 2.5 -3.765625 2.28125 -3.765625 C 2.050781 -3.765625 1.847656 -3.722656 1.671875 -3.640625 C 1.503906 -3.554688 1.359375 -3.4375 1.234375 -3.28125 C 1.117188 -3.132812 1.03125 -2.957031 0.96875 -2.75 C 0.90625 -2.550781 0.875 -2.332031 0.875 -2.09375 Z M 0.875 -2.09375 "/></g></g></g><g fill="#000000" fill-opacity="1"><g transform="translate(54.991487, 63.878705)"><g><path d="M 0.53125 -4.171875 C 0.707031 -4.191406 0.890625 -4.207031 1.078125 -4.21875 C 1.273438 -4.226562 1.476562 -4.234375 1.6875 -4.234375 C 1.945312 -4.234375 2.175781 -4.203125 2.375 -4.140625 C 2.582031 -4.078125 2.753906 -3.988281 2.890625 -3.875 C 3.035156 -3.757812 3.144531 -3.625 3.21875 -3.46875 C 3.289062 -3.3125 3.328125 -3.144531 3.328125 -2.96875 C 3.328125 -2.738281 3.28125 -2.535156 3.1875 -2.359375 C 3.101562 -2.191406 2.984375 -2.046875 2.828125 -1.921875 C 2.679688 -1.804688 2.5 -1.71875 2.28125 -1.65625 C 2.070312 -1.59375 1.835938 -1.5625 1.578125 -1.5625 C 1.410156 -1.5625 1.253906 -1.566406 1.109375 -1.578125 L 1.109375 0 L 0.53125 0 Z M 1.640625 -2.03125 C 2.003906 -2.03125 2.28125 -2.109375 2.46875 -2.265625 C 2.664062 -2.421875 2.765625 -2.640625 2.765625 -2.921875 C 2.765625 -3.171875 2.671875 -3.375 2.484375 -3.53125 C 2.296875 -3.6875 2.03125 -3.765625 1.6875 -3.765625 C 1.570312 -3.765625 1.46875 -3.757812 1.375 -3.75 C 1.28125 -3.75 1.191406 -3.742188 1.109375 -3.734375 L 1.109375 -2.0625 C 1.171875 -2.050781 1.242188 -2.039062 1.328125 -2.03125 C 1.421875 -2.03125 1.523438 -2.03125 1.640625 -2.03125 Z M 1.640625 -2.03125 "/></g></g></g></svg>